# xmcd
#
# Track frame offsets:
#	150
#	13707
#	22867
#	36444
#	45709
#	57972
#	70011
#	80851
#	94201
#	106505
#	119560
#	133083
#
# Disc length: 1938 seconds
#
# Revision: 1
# Processed by: cddbd v1.5.1PL0 Copyright (c) Steve Scherf et al.
# Submitted via: audiograbber 1.83.01
#
DISCID=9e07900c
DTITLE=Dottie West - Dottie West Sings of The Sorrow of Love
DYEAR=1900
DGENRE=Country
TTITLE0=Mommy, Can I Still Call Him Daddy
TTITLE1=Another Heart For You To Break
TTITLE2=Baby
TTITLE3=Before The Ring On Your Finger Turns Green
TTITLE4=Wear Away
TTITLE5=Fair Weather Lover
TTITLE6=Suffer Time
TTITLE7=Let Me Talk To You
TTITLE8=Would You Hold It Against Me
TTITLE9=Just Out of Reach
TTITLE10=What's Come Over My Baby
TTITLE11=Is This Me
EXTD=
EXTT0=
EXTT1=
EXTT2=
EXTT3=
EXTT4=
EXTT5=
EXTT6=
EXTT7=
EXTT8=
EXTT9=
EXTT10=
EXTT11=
PLAYORDER=
